<svg width="10" height="15" viewBox="0 0 10 15" fill="none" xmlns="http://www.w3.org/2000/svg">
<path id="Arrow 2 (Stroke)" fill-rule="evenodd" clip-rule="evenodd" d="M4.43789 0.195262C4.69824 -0.0650872 5.12035 -0.0650872 5.3807 0.195262L9.62334 4.4379C9.88369 4.69825 9.88369 5.12036 9.62334 5.38071C9.36299 5.64106 8.94088 5.64106 8.68053 5.38071L5.57596 2.27614L5.57596 12.3905L8.68053 9.28596C8.94088 9.02561 9.36299 9.02561 9.62334 9.28596C9.88369 9.5463 9.88369 9.96841 9.62334 10.2288L5.3807 14.4714C5.12035 14.7318 4.69824 14.7318 4.43789 14.4714L0.195251 10.2288C-0.0650984 9.96841 -0.0650984 9.54631 0.195251 9.28596C0.4556 9.02561 0.877711 9.02561 1.13806 9.28596L4.24263 12.3905L4.24263 2.27614L1.13806 5.38071C0.877711 5.64106 0.4556 5.64106 0.195251 5.38071C-0.0650986 5.12036 -0.0650986 4.69825 0.195251 4.4379L4.43789 0.195262Z" fill="#222222"/>
</svg>
